<svg width="67" height="66" viewBox="0 0 67 66" fill="none" xmlns="http://www.w3.org/2000/svg">
<g clip-path="url(#clip0_44_806)">
<g clip-path="url(#clip1_44_806)">
<path fill-rule="evenodd" clip-rule="evenodd" d="M33.1466 39.0173L29.0766 46.9589L29.0092 47.0347L24.9004 39.0173H33.1466Z" fill="#FCE68D"/>
<path fill-rule="evenodd" clip-rule="evenodd" d="M29.009 47.0347L12.4207 47.0355L14.6526 39.0173H21.6448H24.9003L29.009 47.0347Z" fill="#FFBE4A"/>
<path fill-rule="evenodd" clip-rule="evenodd" d="M43.394 39.0173L46.4844 47.0355H29.0376L29.0763 46.9589L33.1464 39.0173H40.1092H43.394Z" fill="#FFBE4A"/>
<path fill-rule="evenodd" clip-rule="evenodd" d="M51.0666 23.2184L54.5021 28.7377L46.4847 47.0355L43.3943 39.0173L51.0666 23.2184Z" fill="#FCE68D"/>
<path fill-rule="evenodd" clip-rule="evenodd" d="M30.0217 23.2184L25.753 31L21.645 39.0173H14.6528L22.326 23.2184H30.0217Z" fill="#FFD348"/>
<path fill-rule="evenodd" clip-rule="evenodd" d="M51.0665 23.2184L43.3942 39.0173H40.1094L48.2083 23.2184H51.0665Z" fill="#FFD348"/>
<path fill-rule="evenodd" clip-rule="evenodd" d="M48.2085 23.2184L40.1095 39.0173L36.0007 31L42.7379 18.7165L48.2085 23.2184Z" fill="#FFE780"/>
<path fill-rule="evenodd" clip-rule="evenodd" d="M42.7378 18.7165L36.0006 31H25.7529L30.0216 23.2184L32.491 18.7165H42.7378Z" fill="#F0C419"/>
<path fill-rule="evenodd" clip-rule="evenodd" d="M36.0006 31L40.1095 39.0173H33.1467H24.9005H21.645L25.753 31H36.0006Z" fill="url(#paint0_linear_44_806)"/>
<path fill-rule="evenodd" clip-rule="evenodd" d="M33.4614 1.74884C50.6524 1.74884 64.5885 15.685 64.5885 32.876C64.5885 50.067 50.6524 64.0031 33.4614 64.0031C16.2704 64.0031 2.33423 50.067 2.33423 32.876C2.33423 15.685 16.2704 1.74884 33.4614 1.74884ZM33.4614 3.47815C49.6973 3.47815 62.8592 16.6401 62.8592 32.876C62.8592 49.1119 49.6973 62.2738 33.4614 62.2738C17.2255 62.2738 4.06355 49.1119 4.06355 32.876C4.06355 16.6401 17.2255 3.47815 33.4614 3.47815Z" fill="#FCE68D"/>
<path fill-rule="evenodd" clip-rule="evenodd" d="M33.4614 0C51.6183 0 66.3374 14.7191 66.3374 32.876C66.3374 51.0328 51.6184 65.752 33.4614 65.752C15.3046 65.752 0.585449 51.0329 0.585449 32.876C0.585449 14.7192 15.3045 0 33.4614 0ZM33.4614 1.82647C50.6096 1.82647 64.511 15.7279 64.511 32.876C64.511 50.0241 50.6096 63.9255 33.4614 63.9255C16.3133 63.9255 2.41194 50.0241 2.41194 32.876C2.41194 15.7279 16.3133 1.82647 33.4614 1.82647Z" fill="url(#paint1_linear_44_806)"/>
</g>
</g>
<defs>
<linearGradient id="paint0_linear_44_806" x1="32.5383" y1="37.2993" x2="32.5871" y2="29.6229" gradientUnits="userSpaceOnUse">
<stop stop-color="#CC7A03"/>
<stop offset="0.5" stop-color="#C18C1A"/>
<stop offset="1" stop-color="#FFCC26"/>
</linearGradient>
<linearGradient id="paint1_linear_44_806" x1="39.3764" y1="51.6623" x2="40.2987" y2="-11.2824" gradientUnits="userSpaceOnUse">
<stop stop-color="#CC7A03"/>
<stop offset="0.5" stop-color="#C18C1A"/>
<stop offset="1" stop-color="#FFCC26"/>
</linearGradient>
<clipPath id="clip0_44_806">
<rect width="65.752" height="65.752" fill="white" transform="translate(0.585449)"/>
</clipPath>
<clipPath id="clip1_44_806">
<rect width="65.752" height="65.752" fill="white" transform="translate(0.585449)"/>
</clipPath>
</defs>
</svg>
